<svg xmlns="http://www.w3.org/2000/svg" width="409.808" height="385.908" viewBox="0 0 409.808 385.908">
  <g id="Group_2061" data-name="Group 2061" transform="translate(-0.001 0.028)">
    <path id="Path_4277" data-name="Path 4277" d="M516.326,380.018v106.6l17.831,29.059,1.357,2.21H605.87l1.422-137.87Z" transform="translate(-218.803 -161.052)" fill="#e6e6e6"/>
    <path id="Path_4278" data-name="Path 4278" d="M516.326,380.018v106.6l17.831,29.059,1.094-135.659Z" transform="translate(-218.803 -161.052)" opacity="0.1"/>
    <path id="Path_4279" data-name="Path 4279" d="M154.669,375.084v106.6l-17.831,29.059-1.357,2.21H65.125L63.7,375.084Z" transform="translate(-26.995 -158.961)" fill="#e6e6e6"/>
    <path id="Path_4280" data-name="Path 4280" d="M207.648,375.084v106.6l-17.831,29.059-1.094-135.66Z" transform="translate(-79.975 -158.961)" opacity="0.1"/>
    <path id="Path_4281" data-name="Path 4281" d="M430.009,355.706v6.4H47.67v-9.239L83.2,334.385H398.74Z" transform="translate(-20.201 -141.714)" fill="#e6e6e6"/>
    <path id="Path_4282" data-name="Path 4282" d="M430.009,369.294v6.4H47.67v-9.239Z" transform="translate(-20.201 -155.303)" opacity="0.1"/>
    <path id="Path_4283" data-name="Path 4283" d="M124.865,423.225H107.809L100.7,418.25h31.98Z" transform="translate(-42.674 -177.254)" fill="#3f3d56"/>
    <path id="Path_4284" data-name="Path 4284" d="M124.865,458.991H107.809l-7.107-4.975h31.98Z" transform="translate(-42.674 -192.41)" fill="#3f3d56"/>
    <path id="Path_4285" data-name="Path 4285" d="M124.865,509.556H107.809l-7.107-4.975h31.98Z" transform="translate(-42.674 -213.838)" fill="#3f3d56"/>
    <path id="Path_4286" data-name="Path 4286" d="M124.865,560.122H107.809l-7.107-4.975h31.98Z" transform="translate(-42.674 -235.266)" fill="#3f3d56"/>
    <path id="Path_4287" data-name="Path 4287" d="M589.508,428.158h17.056l7.107-4.975h-31.98Z" transform="translate(-246.503 -179.344)" fill="#3f3d56"/>
    <path id="Path_4288" data-name="Path 4288" d="M589.508,463.924h17.056l7.107-4.975h-31.98Z" transform="translate(-246.503 -194.501)" fill="#3f3d56"/>
    <path id="Path_4289" data-name="Path 4289" d="M589.508,514.49h17.056l7.107-4.975h-31.98Z" transform="translate(-246.503 -215.929)" fill="#3f3d56"/>
    <path id="Path_4290" data-name="Path 4290" d="M589.508,565.055h17.056l7.107-4.975h-31.98Z" transform="translate(-246.503 -237.357)" fill="#3f3d56"/>
    <path id="Path_4291" data-name="Path 4291" d="M750.229,235.615H606.64a5.43,5.43,0,0,0-5.43,5.431V337.77a5.43,5.43,0,0,0,5.431,5.43h54.507l-2.042,13.038s-11.67,6.2-3.465,6.382,46.863,0,46.863,0,7.476,0-4.376-6.565L696.207,343.2h54.021a5.43,5.43,0,0,0,5.43-5.431V241.045a5.43,5.43,0,0,0-5.431-5.43Z" transform="translate(-395.608 -166.216)" fill="#3f3d56"/>
    <rect id="Rectangle_65" data-name="Rectangle 65" width="144.055" height="80.598" transform="translate(210.799 75.142)" fill="#f2f2f2"/>
    <circle id="Ellipse_35" data-name="Ellipse 35" cx="0.912" cy="0.912" r="0.912" transform="translate(281.915 71.678)" fill="#f2f2f2"/>
    <circle id="Ellipse_36" data-name="Ellipse 36" cx="3.465" cy="3.465" r="3.465" transform="translate(279.362 166.135)" fill="#f2f2f2"/>
    <path id="Path_4292" data-name="Path 4292" d="M409.305,353.124v1.824H311.2v-1.459l.135-.365,2.418-6.564H407.3Z" transform="translate(-131.878 -146.874)" fill="#3f3d56"/>
    <path id="Path_4293" data-name="Path 4293" d="M771.121,465.4c-.179.764-.853,1.57-2.378,2.332-5.47,2.735-16.594-.729-16.594-.729s-8.57-1.459-8.57-5.288a6.829,6.829,0,0,1,.751-.447c2.3-1.217,9.926-4.219,23.447.127a5.639,5.639,0,0,1,2.57,1.684,2.69,2.69,0,0,1,.773,2.32Z" transform="translate(-455.94 -260.93)" fill="#3f3d56"/>
    <path id="Path_4294" data-name="Path 4294" d="M771.674,465.4c-6.7,2.566-12.664,2.757-18.789-1.5a13.451,13.451,0,0,0-8-2.635c2.3-1.217,9.926-4.219,23.447.127a5.639,5.639,0,0,1,2.57,1.684,2.689,2.689,0,0,1,.773,2.321Z" transform="translate(-456.493 -260.93)" opacity="0.1"/>
    <ellipse id="Ellipse_37" data-name="Ellipse 37" cx="2.371" cy="0.729" rx="2.371" ry="0.729" transform="translate(304.415 201.51)" fill="#f2f2f2"/>
    <path id="Path_4295" data-name="Path 4295" d="M409.305,357.952v1.824H311.2v-1.459l.135-.365Z" transform="translate(-131.878 -151.701)" opacity="0.1"/>
    <path id="Path_4296" data-name="Path 4296" d="M325.581,115.147a4.929,4.929,0,0,0-2.859.639,7.457,7.457,0,0,0-1.934,2.552,30.532,30.532,0,0,1-8.317,9.4c-2.471,1.811-5.613,4.068-5.191,7.406a10.009,10.009,0,0,0,1.2,3.126c2.28,4.6,8.5,8.159,7.889,13.411,2.265-3.792-.765-5.667,1.5-9.459,1.079-1.806,2.953-3.844,4.581-2.71.545.38.9,1.061,1.471,1.394,1.355.8,2.8-.725,4-1.8,4.135-3.712,10.017-2.74,15.163-1.583,2.43.546,5.1,1.263,6.534,3.585,1.888,3.053-1.794,6.35-2.724,9.8a1.881,1.881,0,0,0,2.019,2.341c1.544-.152,3.373-.277,3.465-.955,1.943.069,4.323-.151,5.156-2.174a8.506,8.506,0,0,0,.4-2.474c.306-3.4,1.748-6.5,2.7-9.732s1.371-7.025-.241-9.892a11.447,11.447,0,0,0-2.112-2.567C349.133,116.594,337.1,115.134,325.581,115.147Z" transform="translate(-271.034 -115.159)" fill="#2f2e41"/>
    <path id="Path_4297" data-name="Path 4297" d="M321.087,187.74s1.99,16.583-5.307,17.91,6.633,23.88,6.633,23.88l33.166,3.98-7.96-26.533s-5.307-1.99-1.99-15.256S321.087,187.74,321.087,187.74Z" transform="translate(-273.756 -144.589)" fill="#ffb8b8"/>
    <path id="Path_4298" data-name="Path 4298" d="M47.028,569.318,49.682,605.8H63.611l-3.979-36.483Z" transform="translate(-19.929 -241.272)" fill="#ffb8b8"/>
    <path id="Path_4299" data-name="Path 4299" d="M224.3,448.625l1.99,30.513L241.55,472.5l-5.97-25.206Z" transform="translate(-95.053 -189.563)" fill="#ffb8b8"/>
    <path id="Path_4300" data-name="Path 4300" d="M274.167,421.879s.663,38.473,4.643,51.076,3.317,13.266,2.653,15.256-1.327.663-1.327,3.98-1.327,55.719,0,60.362-3.98,12.6,0,13.266,22.553,0,23.216-3.98-5.307-5.307-2.653-7.96,6.633-57.046,6.633-57.046l9.286-37.809,17.246-19.9h36.483L381.625,482.9s-4.643,12.6-1.327,12.6,23.216,3.98,23.216-10.613-6.633-57.709-7.96-59.035.663-5.97-1.327-7.96-25.206-15.92-33.829-18.573-20.72-5.811-20.72-5.811Z" transform="translate(-257.018 -233.13)" fill="#2f2e41"/>
    <path id="Path_4301" data-name="Path 4301" d="M485.644,596.6s-9.95-3.317-14.593,6.633-2.653,12.6-2.653,12.6,15.256,5.307,17.91,2.653c1.154-1.154,4.82-1.555,8.593-1.64,5.747-.129,7.276-8.259,1.848-10.153q-.243-.085-.492-.147C490.951,605.224,485.644,596.6,485.644,596.6Z" transform="translate(-339.147 -318.966)" fill="#2f2e41"/>
    <circle id="Ellipse_38" data-name="Ellipse 38" cx="19.9" cy="19.9" r="19.9" transform="translate(42.355 14.296)" fill="#ffb8b8"/>
    <path id="Path_4302" data-name="Path 4302" d="M295.355,231.3s32.5,6.633,40.462-3.98,11.276,29.849,11.276,29.849l3.98,42.452L345.1,322.84s-31.176,25.206-41.126,27.2-25.206,3.317-25.206,3.317,4.643-73.628,4.643-74.955S295.355,231.3,295.355,231.3Z" transform="translate(-258.969 -161.95)" fill="#6c63ff"/>
    <path id="Path_4303" data-name="Path 4303" d="M294.808,212.555s-7.232-4.143-9.222-.163-20.563,13.929-22.552,13.929,3.98,55.056,1.327,61.689-15.256,55.055-7.96,59.035,1.99-3.98,9.286,5.97,43.116,9.95,45.106,5.97-15.92-33.829-12.6-61.689,8.623-66.332,3.98-71.639S294.808,212.555,294.808,212.555Z" transform="translate(-248.538 -155.643)" fill="#2f2e41"/>
    <path id="Path_4304" data-name="Path 4304" d="M366.258,219.382l.924-3.18s27.6,9.15,28.925,15.119.663,47.759-3.98,51.076-11.276,8.623-6.633,16.583,9.95,16.583,13.93,17.246,11.276,5.307,9.286,9.95-25.869-3.98-25.869-3.98-15.92-11.94-15.256-30.513S366.258,219.382,366.258,219.382Z" transform="translate(-296.043 -157.99)" fill="#2f2e41"/>
    <path id="Path_4305" data-name="Path 4305" d="M384.512,357.554,368.592,387.4s-23.216,23.88-9.95,26.533,20.563-21.89,20.563-21.89L396.452,367.5Z" transform="translate(-291.081 -217.89)" fill="#ffb8b8"/>
    <path id="Path_4306" data-name="Path 4306" d="M329.771,124.186a4.516,4.516,0,0,0-2.327.451,5.424,5.424,0,0,0-1.574,1.8,22.918,22.918,0,0,1-6.771,6.64c-2.012,1.28-4.57,2.875-4.225,5.235a6.546,6.546,0,0,0,.981,2.21,17.381,17.381,0,0,1,2.112,10.834l5.532-8.041c.878-1.276,2.4-2.717,3.729-1.916.444.268.735.75,1.2.985,1.1.562,2.276-.512,3.253-1.273,3.366-2.624,8.154-1.937,12.343-1.119,1.978.386,4.15.892,5.319,2.534,1.943,2.727-.086,6.668,1.048,9.819a2.894,2.894,0,0,0,1.2-1.911c1.582.049,3.519-.107,4.2-1.536a5.3,5.3,0,0,0,.325-1.749c.249-2.4,1.423-4.593,2.2-6.879s1.116-4.965-.2-6.992a8.46,8.46,0,0,0-1.72-1.815C348.943,125.209,339.15,124.176,329.771,124.186Z" transform="translate(-274.255 -118.991)" fill="#2f2e41"/>
    <path id="Path_4307" data-name="Path 4307" d="M402.645,237.836l6.18,1.64s14.383,36.832,11.066,62.038-5.307,19.9-5.307,19.9-5.307-11.94-17.246-9.286Z" transform="translate(-309.214 -167.158)" fill="#2f2e41"/>
    <path id="Path_4308" data-name="Path 4308" d="M285.016,738c-1.6,2.174-1.279,5.281-2.7,7.578-1.228,1.991-3.543,3.035-5.079,4.8a12.875,12.875,0,0,0-1.306,1.878c-1.425,2.387-2.583,5.446-1.18,7.846,1.129,1.931,3.5,2.685,5.679,3.2a20.84,20.84,0,0,0,8.392.673c2.783-.5,5.5-2.2,6.495-4.847a18.741,18.741,0,0,1,.694-1.96c1.508-2.969,6.239-3,7.783-5.953,1.08-2.065.087-4.562-.905-6.67l-3.032-6.441c-1.006-2.137-5.084-.908-7.211-1.42C289.877,736.012,287.011,735.276,285.016,738Z" transform="translate(-256.997 -378.289)" fill="#2f2e41"/>
    <path id="Path_4309" data-name="Path 4309" d="M254.6,377.162l27.859,43.116s17.246,21.89,22.553,11.94-18.573-26.533-18.573-26.533l-17.91-33.166Z" transform="translate(-248.725 -224.232)" fill="#ffb8b8"/>
    <path id="Path_4310" data-name="Path 4310" d="M264.209,239.162l-5.307-1.326s-10.613,3.317-13.266,17.246-.663,69.648,2.653,70.312,16.381-9.7,18.472-7.5-4.542-9.079-2.552-15.049S264.209,239.162,264.209,239.162Z" transform="translate(-244.406 -167.158)" fill="#2f2e41"/>
    <g id="Group_13" data-name="Group 13" transform="translate(230.458 101.614)">
      <rect id="Rectangle_55" data-name="Rectangle 55" width="17.144" height="4.127" transform="translate(21.589)" fill="#6c63ff"/>
      <rect id="Rectangle_56" data-name="Rectangle 56" width="6.032" height="4.127" transform="translate(92.071)" fill="#6c63ff"/>
      <rect id="Rectangle_57" data-name="Rectangle 57" width="6.032" height="4.127" transform="translate(104.135)" fill="#6c63ff"/>
      <rect id="Rectangle_58" data-name="Rectangle 58" width="40.956" height="4.127" transform="translate(44.766)" fill="#6c63ff"/>
      <rect id="Rectangle_59" data-name="Rectangle 59" width="17.144" height="4.127" transform="translate(0 26.669)" fill="#6c63ff"/>
      <rect id="Rectangle_60" data-name="Rectangle 60" width="6.032" height="4.127" transform="translate(70.482 26.669)" fill="#6c63ff"/>
      <rect id="Rectangle_61" data-name="Rectangle 61" width="6.032" height="4.127" transform="translate(82.546 26.669)" fill="#6c63ff"/>
      <rect id="Rectangle_62" data-name="Rectangle 62" width="40.956" height="4.127" transform="translate(23.177 26.669)" fill="#6c63ff"/>
      <rect id="Rectangle_63" data-name="Rectangle 63" width="17.144" height="4.127" transform="translate(70.799 9.207)" fill="#6c63ff"/>
      <rect id="Rectangle_64" data-name="Rectangle 64" width="17.144" height="4.127" transform="translate(93.976 9.207)" fill="#6c63ff"/>
      <rect id="Rectangle_66" data-name="Rectangle 66" width="6.032" height="4.127" transform="translate(0 9.207)" fill="#6c63ff"/>
      <rect id="Rectangle_67" data-name="Rectangle 67" width="6.032" height="4.127" transform="translate(12.065 9.207)" fill="#6c63ff"/>
      <rect id="Rectangle_68" data-name="Rectangle 68" width="40.956" height="4.127" transform="translate(24.129 9.207)" fill="#6c63ff"/>
      <rect id="Rectangle_69" data-name="Rectangle 69" width="17.144" height="4.127" transform="translate(35.241 18.097)" fill="#6c63ff"/>
      <rect id="Rectangle_70" data-name="Rectangle 70" width="17.144" height="4.127" transform="translate(12.065 18.097)" fill="#6c63ff"/>
      <rect id="Rectangle_71" data-name="Rectangle 71" width="6.032" height="4.127" transform="translate(0 18.097)" fill="#6c63ff"/>
      <rect id="Rectangle_73" data-name="Rectangle 73" width="6.032" height="4.127" transform="translate(105.088 18.097)" fill="#6c63ff"/>
      <rect id="Rectangle_74" data-name="Rectangle 74" width="40.956" height="4.127" transform="translate(58.1 18.097)" fill="#6c63ff"/>
    </g>
  </g>
</svg>
